HIERARCHY
ROOT Hips
{
	OFFSET 0.000000 0.000000 0.000000
	CHANNELS 6 Xposition Yposition Zposition Zrotation Yrotation Xrotation 
	JOINT LHipJoint
	{
		OFFSET 0.000000 0.000000 0.000000
		CHANNELS 3 Zrotation Yrotation Xrotation
		JOINT LeftUpLeg
		{
			OFFSET 1.363060 -1.794630 0.839290
			CHANNELS 3 Zrotation Yrotation Xrotation
			JOINT LeftLeg
			{
				OFFSET 2.448110 -6.726130 0.000000
				CHANNELS 3 Zrotation Yrotation Xrotation
				JOINT LeftFoot
				{
					OFFSET 2.562200 -7.039590 0.000000
					CHANNELS 3 Zrotation Yrotation Xrotation
					JOINT LeftToeBase
					{
						OFFSET 0.157640 -0.433110 2.322550
						CHANNELS 3 Zrotation Yrotation Xrotation
						End Site
						{
							OFFSET 0.000000 0.000000 0.000000
						}
					}
				}
			}
		}
	}
	JOINT RHipJoint
	{
		OFFSET 0.000000 0.000000 0.000000
		CHANNELS 3 Zrotation Yrotation Xrotation
		JOINT RightUpLeg
		{
			OFFSET -1.305520 -1.794630 0.839290
			CHANNELS 3 Zrotation Yrotation Xrotation
			JOINT RightLeg
			{
				OFFSET -2.542530 -6.985550 0.000000
				CHANNELS 3 Zrotation Yrotation Xrotation
				JOINT RightFoot
				{
					OFFSET -2.568260 -7.056230 0.000000
					CHANNELS 3 Zrotation Yrotation Xrotation
					JOINT RightToeBase
					{
						OFFSET -0.164730 -0.452590 2.363150
						CHANNELS 3 Zrotation Yrotation Xrotation
						End Site
						{
							OFFSET 0.000000 0.000000 0.000000
						}
					}
				}
			}
		}
	}
	JOINT LowerBack
	{
		OFFSET 0.000000 0.000000 0.000000
		CHANNELS 3 Zrotation Yrotation Xrotation
		JOINT Spine
		{
			OFFSET 0.028270 2.035590 -0.193380
			CHANNELS 3 Zrotation Yrotation Xrotation
			JOINT Spine1
			{
				OFFSET 0.056720 2.048850 -0.042750
				CHANNELS 3 Zrotation Yrotation Xrotation
				JOINT Neck
				{
					OFFSET 0.000000 0.000000 0.000000
					CHANNELS 3 Zrotation Yrotation Xrotation
					JOINT Neck1
					{
						OFFSET -0.054170 1.746240 0.172020
						CHANNELS 3 Zrotation Yrotation Xrotation
						JOINT Head
						{
							OFFSET 0.104070 1.761360 -0.123970
							CHANNELS 3 Zrotation Yrotation Xrotation
							End Site
							{
								OFFSET 0.000000 0.000000 0.000000
							}
						}
					}
				}
				JOINT LeftShoulder
				{
					OFFSET 0.000000 0.000000 0.000000
					CHANNELS 3 Zrotation Yrotation Xrotation
					JOINT LeftArm
					{
						OFFSET 3.362410 1.200890 -0.311210
						CHANNELS 3 Zrotation Yrotation Xrotation
						JOINT LeftForeArm
						{
							OFFSET 4.983000 -0.000000 -0.000000
							CHANNELS 3 Zrotation Yrotation Xrotation
							JOINT LeftHand
							{
								OFFSET 3.483560 -0.000000 -0.000000
								CHANNELS 3 Zrotation Yrotation Xrotation
								JOINT LeftFingerBase
								{
									OFFSET 0.000000 0.000000 0.000000
									CHANNELS 3 Zrotation Yrotation Xrotation
									JOINT LeftHandIndex1
									{
										OFFSET 0.715260 -0.000000 -0.000000
										CHANNELS 3 Zrotation Yrotation Xrotation
										End Site
										{
											OFFSET 0.000000 0.000000 0.000000
										}
									}
								}
								JOINT LThumb
								{
									OFFSET 0.000000 0.000000 0.000000
									CHANNELS 3 Zrotation Yrotation Xrotation
									End Site
									{
										OFFSET 0.000000 0.000000 0.000000
									}
								}
							}
						}
					}
				}
				JOINT RightShoulder
				{
					OFFSET 0.000000 0.000000 0.000000
					CHANNELS 3 Zrotation Yrotation Xrotation
					JOINT RightArm
					{
						OFFSET -3.136600 1.374050 -0.404650
						CHANNELS 3 Zrotation Yrotation Xrotation
						JOINT RightForeArm
						{
							OFFSET -5.241900 -0.000000 -0.000000
							CHANNELS 3 Zrotation Yrotation Xrotation
							JOINT RightHand
							{
								OFFSET -3.444170 -0.000000 -0.000000
								CHANNELS 3 Zrotation Yrotation Xrotation
								JOINT RightFingerBase
								{
									OFFSET 0.000000 0.000000 0.000000
									CHANNELS 3 Zrotation Yrotation Xrotation
									JOINT RightHandIndex1
									{
										OFFSET -0.622530 -0.000000 -0.000000
										CHANNELS 3 Zrotation Yrotation Xrotation
										End Site
										{
											OFFSET 0.000000 0.000000 0.000000
										}
									}
								}
								JOINT RThumb
								{
									OFFSET 0.000000 0.000000 0.000000
									CHANNELS 3 Zrotation Yrotation Xrotation
									End Site
									{
										OFFSET 0.000000 0.000000 0.000000
									}
								}
							}
						}
					}
				}
			}
		}
	}
}
MOTION
Frames: 8
Frame Time: 0.008333
-4.864944 15.356441 1.484610 -131.915129 84.594346 -107.088064 -8.901777 -1.455134 -1.820006 -24.766108 2.224289 -70.951982 -1.474781 4.131103 55.424881 5.377705 20.008422 -24.971411 174.684900 0.000000 -9.724400 10.291166 -3.117267 -7.037020 14.436442 -21.382332 -32.000739 0.337119 -5.873768 69.280124 1.003565 13.285509 -2.904468 0.660300 0.000000 -79.058900 -2.440981 0.197877 10.901082 -1.528157 0.406598 -1.069145 -6.497488 0.410369 -0.895296 8.453968 -5.153345 -6.401255 -2.360312 -0.168445 -0.056627 0.000000 0.000000 0.000000 3.197103 10.540272 3.584767 -72.613993 20.486726 8.707568 -1.888136 -54.009693 -0.004471 -3.895010 8.257399 -0.279552 -0.027639 -0.011765 -0.000000 0.000000 0.000000 0.000000 0.000000 0.000000 0.000000 7.571333 0.664795 -0.853707 71.846313 7.399207 9.002612 0.058348 86.498490 -0.038624 -6.091263 3.129428 -0.189944 0.067244 -0.411598 0.000000 0.000000 0.000000 0.000000 0.000000 0.000000 0.000000 
-4.741975 15.343917 1.473407 -131.022675 84.421629 -106.347307 -8.913028 -1.535161 -1.903073 -24.408737 2.385468 -70.667964 -1.394684 4.158028 56.318027 5.408137 20.139191 -25.674362 174.357200 -0.000000 -9.711300 10.413701 -3.063582 -7.065500 14.126218 -21.500436 -32.343861 0.057582 -5.968695 70.531845 0.966394 13.578858 -0.478860 1.246700 0.000001 -79.380700 -2.618508 0.136314 11.026942 -1.571235 0.346015 -1.043835 -6.525478 0.350576 -0.930452 8.410190 -5.015482 -6.282148 -2.380464 -0.171042 -0.027854 0.000000 0.000000 0.000000 3.155931 10.117013 3.561732 -72.694183 19.662401 8.432163 -1.907483 -53.419656 -0.004554 -3.537244 8.270966 -0.253733 -0.030677 -0.007698 -0.000000 0.000000 0.000000 0.000000 0.000000 0.000000 0.000000 7.664259 0.687724 -0.814441 72.416911 7.244964 9.102794 0.083893 85.140053 -0.038859 -6.220580 3.244136 -0.199955 0.067383 -0.406402 0.000000 0.000000 0.000000 0.000000 0.000000 0.000000 0.000000 
-4.621185 15.333421 1.460376 -130.194443 84.243045 -105.679481 -8.925629 -1.612390 -1.983725 -24.042585 2.531041 -70.303367 -1.321296 4.170969 57.111377 5.450755 20.318386 -26.404009 174.004801 -0.000000 -9.778200 10.527454 -2.995690 -7.097002 13.829306 -21.594685 -32.727169 -0.215866 -6.059441 71.806295 0.908040 13.845403 1.972081 1.878200 -0.000000 -79.300900 -2.782826 0.072995 11.156294 -1.609543 0.283744 -1.015022 -6.545816 0.289262 -0.956329 8.333051 -4.877684 -6.150912 -2.400255 -0.173762 0.004247 0.000000 0.000000 0.000000 3.108617 9.697270 3.528045 -72.761005 18.802095 8.160762 -1.924969 -52.863993 -0.004656 -3.173658 8.259018 -0.226713 -0.033696 -0.003348 -0.000000 0.000000 0.000000 0.000000 0.000000 0.000000 0.000000 7.731569 0.697966 -0.775329 72.959152 7.118573 9.229274 0.109956 83.682132 -0.038884 -6.338934 3.345979 -0.209168 0.067595 -0.400072 0.000000 0.000000 0.000000 0.000000 0.000000 0.000000 0.000000 
-4.502540 15.324808 1.445710 -129.403110 84.058474 -105.053746 -8.938837 -1.687448 -2.062613 -23.668859 2.665816 -69.884804 -1.252007 4.174216 57.832005 5.501790 20.539346 -27.132609 173.638301 -0.000000 -9.935100 10.633022 -2.915571 -7.127596 13.549966 -21.652194 -33.149193 -0.477589 -6.146082 73.094900 0.832762 14.082792 4.380256 2.530400 -0.000000 -78.809500 -2.936097 0.008837 11.285081 -1.643873 0.220949 -0.983752 -6.560165 0.227599 -0.973056 8.227500 -4.741248 -6.010877 -2.420539 -0.176624 0.038744 0.000000 0.000000 0.000000 3.060317 9.285734 3.484770 -72.814777 17.909716 7.885496 -1.940461 -52.352405 -0.004769 -2.811504 8.219366 -0.199194 -0.036648 0.001294 -0.000000 0.000000 0.000000 0.000000 0.000000 0.000000 0.000000 7.780601 0.697503 -0.735381 73.465663 7.017426 9.383407 0.136647 82.140995 -0.038630 -6.433951 3.434853 -0.216882 0.067760 -0.392708 0.000000 0.000000 0.000000 0.000000 0.000000 0.000000 0.000000 
-4.386039 15.317963 1.429728 -128.634216 83.867890 -104.451032 -8.951780 -1.759822 -2.140758 -23.293338 2.797736 -69.438149 -1.185418 4.171955 58.502395 5.556460 20.788203 -27.835107 173.270100 0.000000 -10.164100 10.731252 -2.825508 -7.153487 13.292612 -21.661895 -33.610320 -0.723764 -6.229140 74.389635 0.745990 14.281120 6.672969 3.173400 -0.000000 -77.945200 -3.080851 -0.055252 11.409543 -1.675084 0.158743 -0.950794 -6.570042 0.166724 -0.980144 8.099155 -4.607723 -5.866680 -2.442061 -0.179618 0.074293 0.000000 0.000000 0.000000 3.018381 8.892129 3.433430 -72.855095 16.979761 7.605274 -1.954184 -51.887541 -0.004893 -2.455983 8.151435 -0.171873 -0.039530 0.006254 -0.000000 0.000000 0.000000 0.000000 0.000000 0.000000 0.000000 7.818784 0.688207 -0.694244 73.930430 6.937695 9.564480 0.164264 80.535937 -0.038061 -6.496719 3.513086 -0.222998 0.067787 -0.384482 0.000000 0.000000 0.000000 0.000000 0.000000 0.000000 0.000000 
-4.271619 15.312845 1.412697 -127.886358 83.671278 -103.865935 -8.963896 -1.828383 -2.219114 -22.923395 2.936720 -68.985612 -1.121408 4.167791 59.137931 5.609609 21.045546 -28.492431 172.912800 -0.000000 -10.436199 10.822704 -2.728087 -7.171314 13.061798 -21.615353 -34.111501 -0.952634 -6.309380 75.682852 0.653737 14.421912 8.773606 3.771900 -0.000000 -76.733000 -3.218865 -0.117881 11.526028 -1.704078 0.098623 -0.918095 -6.577647 0.108005 -0.981783 7.953206 -4.475913 -5.718939 -2.465750 -0.182806 0.110764 0.000000 0.000000 0.000000 2.982464 8.503473 3.375424 -72.880961 16.032079 7.300030 -1.965224 -51.488100 -0.005016 -2.112011 8.058100 -0.145352 -0.042260 0.011508 0.000000 0.000000 0.000000 0.000000 0.000000 0.000000 0.000000 7.852904 0.674791 -0.649665 74.349475 6.867785 9.766417 0.193283 78.887211 -0.037176 -6.521587 3.586033 -0.227614 0.067627 -0.375640 0.000000 0.000000 0.000000 0.000000 0.000000 0.000000 0.000000 
-4.159261 15.309447 1.394853 -127.172612 83.467837 -103.307206 -8.974989 -1.891768 -2.298766 -22.567259 3.092377 -68.543556 -1.060852 4.164445 59.746717 5.656543 21.290122 -29.093095 172.577900 -0.000000 -10.711900 10.907570 -2.625664 -7.178946 12.861271 -21.508539 -34.654436 -1.164536 -6.387671 76.966441 0.561555 14.481058 10.615419 4.290200 0.000000 -75.267100 -3.351565 -0.178209 11.632605 -1.731462 0.041471 -0.886176 -6.584213 0.052315 -0.978399 7.794923 -4.346992 -5.571658 -2.492011 -0.186157 0.146976 0.000000 0.000000 0.000000 2.957279 8.125954 3.312405 -72.890809 15.060809 6.969935 -1.973593 -51.154719 -0.005144 -1.779519 7.942585 -0.119930 -0.044870 0.017080 0.000000 0.000000 0.000000 0.000000 0.000000 0.000000 0.000000 7.888346 0.658928 -0.601473 74.720115 6.800338 9.983357 0.224126 77.215386 -0.036004 -6.507270 3.659454 -0.230829 0.067266 -0.366421 0.000000 0.000000 0.000000 0.000000 0.000000 0.000000 0.000000 
-4.048932 15.307761 1.376383 -126.518203 83.256845 -102.797415 -8.985481 -1.948681 -2.380524 -22.232379 3.273323 -68.121681 -1.005392 4.163669 60.329669 5.693364 21.500865 -29.633161 172.274800 -0.000001 -10.942800 10.985299 -2.520525 -7.175200 12.694254 -21.341228 -35.239073 -1.361280 -6.464557 78.231297 0.473811 14.429440 12.142228 4.694100 0.000000 -73.672000 -3.479136 -0.235523 11.728108 -1.757507 -0.012030 -0.855538 -6.590659 0.000310 -0.970997 7.628579 -4.221778 -5.427816 -2.521039 -0.189640 0.182081 0.000000 0.000000 0.000000 2.945128 7.762529 3.245767 -72.883447 14.063305 6.614554 -1.979062 -50.889187 -0.005288 -1.455448 7.809599 -0.095609 -0.047401 0.022979 0.000000 0.000000 0.000000 0.000000 0.000000 0.000000 0.000000 7.928492 0.642076 -0.549512 75.040929 6.726813 10.208000 0.257134 75.539439 -0.034597 -6.456339 3.740112 -0.233043 0.066725 -0.357065 0.000000 0.000000 0.000000 0.000000 0.000000 0.000000 0.000000 
